<svg xmlns="http://www.w3.org/2000/svg" width="160" height="120" viewBox="0 0 160 120" fill="none">
  <rect width="160" height="120" rx="8" fill="#f3f4f6" />
  <g transform="translate(32,20)" fill="#c7d2fe">
    <path d="M24 2c-6.627 0-12 5.373-12 12v4H10a6 6 0 0 0-6 6v34a6 6 0 0 0 6 6h68a6 6 0 0 0 6-6V24a6 6 0 0 0-6-6h-2v-4c0-6.627-5.373-12-12-12H24zM24 10h36c2.206 0 4 1.794 4 4v4H20v-4c0-2.206 1.794-4 4-4z" />
  </g>
  <text x="50%" y="85%" text-anchor="middle" fill="#94a3b8" font-size="11" font-family="Inter, Arial">No Image</text>
</svg>